<mxfile host="app.diagrams.net" agent="Mozilla/5.0 (Windows NT 10.0; Win64; x64) AppleWebKit/537.36 (KHTML, like Gecko) Chrome/135.0.0.0 Safari/537.36" version="26.2.8">
  <diagram id="C5RBs43oDa-KdzZeNtuy" name="Page-1">
    <mxGraphModel dx="1150" dy="569" grid="1" gridSize="10" guides="1" tooltips="1" connect="1" arrows="1" fold="1" page="1" pageScale="1" pageWidth="827" pageHeight="1169" math="0" shadow="0">
      <root>
        <mxCell id="WIyWlLk6GJQsqaUBKTNV-0" />
        <mxCell id="WIyWlLk6GJQsqaUBKTNV-1" parent="WIyWlLk6GJQsqaUBKTNV-0" />
        <mxCell id="mJ1ravrtJLdZ4fbOOK0W-46" value="" style="edgeStyle=none;rounded=0;orthogonalLoop=1;jettySize=auto;html=1;" edge="1" parent="WIyWlLk6GJQsqaUBKTNV-1" source="mJ1ravrtJLdZ4fbOOK0W-0">
          <mxGeometry relative="1" as="geometry">
            <mxPoint x="135" y="510" as="targetPoint" />
          </mxGeometry>
        </mxCell>
        <mxCell id="mJ1ravrtJLdZ4fbOOK0W-0" value="행 루프&lt;div&gt;&amp;nbsp;i&lt;span style=&quot;background-color: transparent; color: light-dark(rgb(0, 0, 0), rgb(255, 255, 255));&quot;&gt;: 1, 1, n&lt;/span&gt;&lt;/div&gt;" style="shape=loopLimit;whiteSpace=wrap;html=1;fillColor=#DFDFDF;" vertex="1" parent="WIyWlLk6GJQsqaUBKTNV-1">
          <mxGeometry x="70" y="90" width="130" height="50" as="geometry" />
        </mxCell>
        <mxCell id="mJ1ravrtJLdZ4fbOOK0W-1" value="열 루프&lt;div&gt;j: n, -1, i&lt;/div&gt;" style="shape=loopLimit;whiteSpace=wrap;html=1;fillColor=#F19C99;" vertex="1" parent="WIyWlLk6GJQsqaUBKTNV-1">
          <mxGeometry x="70" y="160" width="130" height="50" as="geometry" />
        </mxCell>
        <mxCell id="mJ1ravrtJLdZ4fbOOK0W-2" value="&quot;*&quot; 출력" style="rounded=0;whiteSpace=wrap;html=1;" vertex="1" parent="WIyWlLk6GJQsqaUBKTNV-1">
          <mxGeometry x="70" y="230" width="130" height="40" as="geometry" />
        </mxCell>
        <mxCell id="mJ1ravrtJLdZ4fbOOK0W-6" value="열 루프" style="shape=loopLimit;whiteSpace=wrap;html=1;direction=west;fillColor=#F19C99;" vertex="1" parent="WIyWlLk6GJQsqaUBKTNV-1">
          <mxGeometry x="70" y="290" width="130" height="50" as="geometry" />
        </mxCell>
        <mxCell id="mJ1ravrtJLdZ4fbOOK0W-7" value="줄바꿈" style="rounded=0;whiteSpace=wrap;html=1;" vertex="1" parent="WIyWlLk6GJQsqaUBKTNV-1">
          <mxGeometry x="70" y="360" width="130" height="40" as="geometry" />
        </mxCell>
        <mxCell id="mJ1ravrtJLdZ4fbOOK0W-8" value="행루프" style="shape=loopLimit;whiteSpace=wrap;html=1;direction=west;fillColor=#DFDFDF;" vertex="1" parent="WIyWlLk6GJQsqaUBKTNV-1">
          <mxGeometry x="70" y="420" width="130" height="50" as="geometry" />
        </mxCell>
        <mxCell id="mJ1ravrtJLdZ4fbOOK0W-47" value="&amp;lt;왼쪽 위가 직각인 이등변삼각형 순서도&amp;gt;" style="text;html=1;align=center;verticalAlign=middle;resizable=0;points=[];autosize=1;strokeColor=none;fillColor=none;" vertex="1" parent="WIyWlLk6GJQsqaUBKTNV-1">
          <mxGeometry x="25" y="40" width="240" height="30" as="geometry" />
        </mxCell>
        <mxCell id="mJ1ravrtJLdZ4fbOOK0W-48" value="" style="edgeStyle=none;rounded=0;orthogonalLoop=1;jettySize=auto;html=1;" edge="1" parent="WIyWlLk6GJQsqaUBKTNV-1" source="mJ1ravrtJLdZ4fbOOK0W-49">
          <mxGeometry relative="1" as="geometry">
            <mxPoint x="395" y="550" as="targetPoint" />
          </mxGeometry>
        </mxCell>
        <mxCell id="mJ1ravrtJLdZ4fbOOK0W-49" value="행 루프&lt;div&gt;&amp;nbsp;i&lt;span style=&quot;background-color: transparent; color: light-dark(rgb(0, 0, 0), rgb(255, 255, 255));&quot;&gt;: 1, 1, n&lt;/span&gt;&lt;/div&gt;" style="shape=loopLimit;whiteSpace=wrap;html=1;fillColor=#DFDFDF;" vertex="1" parent="WIyWlLk6GJQsqaUBKTNV-1">
          <mxGeometry x="330" y="90" width="130" height="50" as="geometry" />
        </mxCell>
        <mxCell id="mJ1ravrtJLdZ4fbOOK0W-50" value="열 루프&lt;div&gt;j: n, -1, i&lt;/div&gt;" style="shape=loopLimit;whiteSpace=wrap;html=1;fillColor=#F19C99;" vertex="1" parent="WIyWlLk6GJQsqaUBKTNV-1">
          <mxGeometry x="330" y="210" width="130" height="50" as="geometry" />
        </mxCell>
        <mxCell id="mJ1ravrtJLdZ4fbOOK0W-51" value="&quot;*&quot; 출력" style="rounded=0;whiteSpace=wrap;html=1;" vertex="1" parent="WIyWlLk6GJQsqaUBKTNV-1">
          <mxGeometry x="330" y="280" width="130" height="40" as="geometry" />
        </mxCell>
        <mxCell id="mJ1ravrtJLdZ4fbOOK0W-52" value="열 루프" style="shape=loopLimit;whiteSpace=wrap;html=1;direction=west;fillColor=#F19C99;" vertex="1" parent="WIyWlLk6GJQsqaUBKTNV-1">
          <mxGeometry x="330" y="340" width="130" height="50" as="geometry" />
        </mxCell>
        <mxCell id="mJ1ravrtJLdZ4fbOOK0W-53" value="줄바꿈" style="rounded=0;whiteSpace=wrap;html=1;" vertex="1" parent="WIyWlLk6GJQsqaUBKTNV-1">
          <mxGeometry x="330" y="410" width="130" height="40" as="geometry" />
        </mxCell>
        <mxCell id="mJ1ravrtJLdZ4fbOOK0W-54" value="행루프" style="shape=loopLimit;whiteSpace=wrap;html=1;direction=west;fillColor=#DFDFDF;" vertex="1" parent="WIyWlLk6GJQsqaUBKTNV-1">
          <mxGeometry x="330" y="470" width="130" height="50" as="geometry" />
        </mxCell>
        <mxCell id="mJ1ravrtJLdZ4fbOOK0W-55" value="&amp;lt;오른쪽 위가 직각인 이등변삼각형 순서도&amp;gt;" style="text;html=1;align=center;verticalAlign=middle;resizable=0;points=[];autosize=1;strokeColor=none;fillColor=none;" vertex="1" parent="WIyWlLk6GJQsqaUBKTNV-1">
          <mxGeometry x="270" y="40" width="250" height="30" as="geometry" />
        </mxCell>
        <mxCell id="mJ1ravrtJLdZ4fbOOK0W-56" value="&quot;&amp;nbsp; &quot;를 i-1번 가로 출력" style="rounded=0;whiteSpace=wrap;html=1;" vertex="1" parent="WIyWlLk6GJQsqaUBKTNV-1">
          <mxGeometry x="330" y="160" width="130" height="40" as="geometry" />
        </mxCell>
        <mxCell id="mJ1ravrtJLdZ4fbOOK0W-57" value="" style="edgeStyle=none;rounded=0;orthogonalLoop=1;jettySize=auto;html=1;" edge="1" parent="WIyWlLk6GJQsqaUBKTNV-1" source="mJ1ravrtJLdZ4fbOOK0W-58">
          <mxGeometry relative="1" as="geometry">
            <mxPoint x="665" y="550" as="targetPoint" />
          </mxGeometry>
        </mxCell>
        <mxCell id="mJ1ravrtJLdZ4fbOOK0W-58" value="행 루프&lt;div&gt;&amp;nbsp;i&lt;span style=&quot;background-color: transparent; color: light-dark(rgb(0, 0, 0), rgb(255, 255, 255));&quot;&gt;: 1, 1, n&lt;/span&gt;&lt;/div&gt;" style="shape=loopLimit;whiteSpace=wrap;html=1;fillColor=#DFDFDF;" vertex="1" parent="WIyWlLk6GJQsqaUBKTNV-1">
          <mxGeometry x="600" y="90" width="130" height="50" as="geometry" />
        </mxCell>
        <mxCell id="mJ1ravrtJLdZ4fbOOK0W-59" value="열 루프&lt;div&gt;j: 1, 1, i&lt;/div&gt;" style="shape=loopLimit;whiteSpace=wrap;html=1;fillColor=#F19C99;" vertex="1" parent="WIyWlLk6GJQsqaUBKTNV-1">
          <mxGeometry x="600" y="210" width="130" height="50" as="geometry" />
        </mxCell>
        <mxCell id="mJ1ravrtJLdZ4fbOOK0W-60" value="&quot;*&quot; 출력" style="rounded=0;whiteSpace=wrap;html=1;" vertex="1" parent="WIyWlLk6GJQsqaUBKTNV-1">
          <mxGeometry x="600" y="280" width="130" height="40" as="geometry" />
        </mxCell>
        <mxCell id="mJ1ravrtJLdZ4fbOOK0W-61" value="열 루프" style="shape=loopLimit;whiteSpace=wrap;html=1;direction=west;fillColor=#F19C99;" vertex="1" parent="WIyWlLk6GJQsqaUBKTNV-1">
          <mxGeometry x="600" y="340" width="130" height="50" as="geometry" />
        </mxCell>
        <mxCell id="mJ1ravrtJLdZ4fbOOK0W-62" value="줄바꿈" style="rounded=0;whiteSpace=wrap;html=1;" vertex="1" parent="WIyWlLk6GJQsqaUBKTNV-1">
          <mxGeometry x="600" y="410" width="130" height="40" as="geometry" />
        </mxCell>
        <mxCell id="mJ1ravrtJLdZ4fbOOK0W-63" value="행루프" style="shape=loopLimit;whiteSpace=wrap;html=1;direction=west;fillColor=#DFDFDF;" vertex="1" parent="WIyWlLk6GJQsqaUBKTNV-1">
          <mxGeometry x="600" y="470" width="130" height="50" as="geometry" />
        </mxCell>
        <mxCell id="mJ1ravrtJLdZ4fbOOK0W-64" value="&amp;lt;오른쪽 아래가 직각인 이등변삼각형 순서도&amp;gt;" style="text;html=1;align=center;verticalAlign=middle;resizable=0;points=[];autosize=1;strokeColor=none;fillColor=none;" vertex="1" parent="WIyWlLk6GJQsqaUBKTNV-1">
          <mxGeometry x="530" y="40" width="270" height="30" as="geometry" />
        </mxCell>
        <mxCell id="mJ1ravrtJLdZ4fbOOK0W-65" value="&quot;&amp;nbsp; &quot;를 n-i번 가로 출력" style="rounded=0;whiteSpace=wrap;html=1;" vertex="1" parent="WIyWlLk6GJQsqaUBKTNV-1">
          <mxGeometry x="600" y="160" width="130" height="40" as="geometry" />
        </mxCell>
        <mxCell id="mJ1ravrtJLdZ4fbOOK0W-66" value="" style="edgeStyle=none;rounded=0;orthogonalLoop=1;jettySize=auto;html=1;" edge="1" parent="WIyWlLk6GJQsqaUBKTNV-1" source="mJ1ravrtJLdZ4fbOOK0W-67">
          <mxGeometry relative="1" as="geometry">
            <mxPoint x="135" y="1120" as="targetPoint" />
          </mxGeometry>
        </mxCell>
        <mxCell id="mJ1ravrtJLdZ4fbOOK0W-67" value="행 루프&lt;div&gt;&amp;nbsp;i&lt;span style=&quot;background-color: transparent; color: light-dark(rgb(0, 0, 0), rgb(255, 255, 255));&quot;&gt;: 1, 1, n&lt;/span&gt;&lt;/div&gt;" style="shape=loopLimit;whiteSpace=wrap;html=1;fillColor=#DFDFDF;" vertex="1" parent="WIyWlLk6GJQsqaUBKTNV-1">
          <mxGeometry x="70" y="660" width="130" height="50" as="geometry" />
        </mxCell>
        <mxCell id="mJ1ravrtJLdZ4fbOOK0W-68" value="열 루프&lt;div&gt;j: 1, 1, 2i-1&lt;/div&gt;" style="shape=loopLimit;whiteSpace=wrap;html=1;fillColor=#F19C99;" vertex="1" parent="WIyWlLk6GJQsqaUBKTNV-1">
          <mxGeometry x="70" y="780" width="130" height="50" as="geometry" />
        </mxCell>
        <mxCell id="mJ1ravrtJLdZ4fbOOK0W-69" value="&quot;*&quot; 출력" style="rounded=0;whiteSpace=wrap;html=1;" vertex="1" parent="WIyWlLk6GJQsqaUBKTNV-1">
          <mxGeometry x="70" y="850" width="130" height="40" as="geometry" />
        </mxCell>
        <mxCell id="mJ1ravrtJLdZ4fbOOK0W-70" value="열 루프" style="shape=loopLimit;whiteSpace=wrap;html=1;direction=west;fillColor=#F19C99;" vertex="1" parent="WIyWlLk6GJQsqaUBKTNV-1">
          <mxGeometry x="70" y="910" width="130" height="50" as="geometry" />
        </mxCell>
        <mxCell id="mJ1ravrtJLdZ4fbOOK0W-72" value="행루프" style="shape=loopLimit;whiteSpace=wrap;html=1;direction=west;fillColor=#DFDFDF;" vertex="1" parent="WIyWlLk6GJQsqaUBKTNV-1">
          <mxGeometry x="70" y="980" width="130" height="50" as="geometry" />
        </mxCell>
        <mxCell id="mJ1ravrtJLdZ4fbOOK0W-73" value="&quot;&amp;nbsp; &quot;를 n-i번 가로 출력" style="rounded=0;whiteSpace=wrap;html=1;" vertex="1" parent="WIyWlLk6GJQsqaUBKTNV-1">
          <mxGeometry x="70" y="730" width="130" height="40" as="geometry" />
        </mxCell>
        <mxCell id="mJ1ravrtJLdZ4fbOOK0W-74" value="&amp;lt;n단의 피라미드 순서도&amp;gt;" style="text;html=1;align=center;verticalAlign=middle;resizable=0;points=[];autosize=1;strokeColor=none;fillColor=none;" vertex="1" parent="WIyWlLk6GJQsqaUBKTNV-1">
          <mxGeometry x="55" y="610" width="160" height="30" as="geometry" />
        </mxCell>
        <mxCell id="mJ1ravrtJLdZ4fbOOK0W-76" value="줄바꿈" style="rounded=0;whiteSpace=wrap;html=1;" vertex="1" parent="WIyWlLk6GJQsqaUBKTNV-1">
          <mxGeometry x="70" y="1050" width="130" height="40" as="geometry" />
        </mxCell>
        <mxCell id="mJ1ravrtJLdZ4fbOOK0W-77" value="" style="edgeStyle=none;rounded=0;orthogonalLoop=1;jettySize=auto;html=1;" edge="1" parent="WIyWlLk6GJQsqaUBKTNV-1" source="mJ1ravrtJLdZ4fbOOK0W-78">
          <mxGeometry relative="1" as="geometry">
            <mxPoint x="350" y="1120" as="targetPoint" />
          </mxGeometry>
        </mxCell>
        <mxCell id="mJ1ravrtJLdZ4fbOOK0W-78" value="행 루프&lt;div&gt;&amp;nbsp;i&lt;span style=&quot;background-color: transparent; color: light-dark(rgb(0, 0, 0), rgb(255, 255, 255));&quot;&gt;: 1, 1, n&lt;/span&gt;&lt;/div&gt;" style="shape=loopLimit;whiteSpace=wrap;html=1;fillColor=#DFDFDF;" vertex="1" parent="WIyWlLk6GJQsqaUBKTNV-1">
          <mxGeometry x="285" y="660" width="130" height="50" as="geometry" />
        </mxCell>
        <mxCell id="mJ1ravrtJLdZ4fbOOK0W-79" value="열 루프&lt;div&gt;j: 1, 1, 2i-1&lt;/div&gt;" style="shape=loopLimit;whiteSpace=wrap;html=1;fillColor=#F19C99;" vertex="1" parent="WIyWlLk6GJQsqaUBKTNV-1">
          <mxGeometry x="285" y="780" width="130" height="50" as="geometry" />
        </mxCell>
        <mxCell id="mJ1ravrtJLdZ4fbOOK0W-80" value="&quot;2i-1&quot; 출력" style="rounded=0;whiteSpace=wrap;html=1;" vertex="1" parent="WIyWlLk6GJQsqaUBKTNV-1">
          <mxGeometry x="285" y="850" width="130" height="40" as="geometry" />
        </mxCell>
        <mxCell id="mJ1ravrtJLdZ4fbOOK0W-81" value="열 루프" style="shape=loopLimit;whiteSpace=wrap;html=1;direction=west;fillColor=#F19C99;" vertex="1" parent="WIyWlLk6GJQsqaUBKTNV-1">
          <mxGeometry x="285" y="910" width="130" height="50" as="geometry" />
        </mxCell>
        <mxCell id="mJ1ravrtJLdZ4fbOOK0W-82" value="행루프" style="shape=loopLimit;whiteSpace=wrap;html=1;direction=west;fillColor=#DFDFDF;" vertex="1" parent="WIyWlLk6GJQsqaUBKTNV-1">
          <mxGeometry x="285" y="980" width="130" height="50" as="geometry" />
        </mxCell>
        <mxCell id="mJ1ravrtJLdZ4fbOOK0W-83" value="&quot;&amp;nbsp; &quot;를 n-i번 가로 출력" style="rounded=0;whiteSpace=wrap;html=1;" vertex="1" parent="WIyWlLk6GJQsqaUBKTNV-1">
          <mxGeometry x="285" y="730" width="130" height="40" as="geometry" />
        </mxCell>
        <mxCell id="mJ1ravrtJLdZ4fbOOK0W-84" value="&amp;lt;n단의 숫자 피라미드 순서도&amp;gt;" style="text;html=1;align=center;verticalAlign=middle;resizable=0;points=[];autosize=1;strokeColor=none;fillColor=none;" vertex="1" parent="WIyWlLk6GJQsqaUBKTNV-1">
          <mxGeometry x="255" y="610" width="190" height="30" as="geometry" />
        </mxCell>
        <mxCell id="mJ1ravrtJLdZ4fbOOK0W-85" value="줄바꿈" style="rounded=0;whiteSpace=wrap;html=1;" vertex="1" parent="WIyWlLk6GJQsqaUBKTNV-1">
          <mxGeometry x="285" y="1050" width="130" height="40" as="geometry" />
        </mxCell>
      </root>
    </mxGraphModel>
  </diagram>
</mxfile>
